# xmcd CD database file
#
# Track frame offsets:
#	150
#	13476
#	28616
#	41555
#	53130
#	69517
#	78907
#	89596
#	101438
#	119420
#	136052
#	153737
#	166529
#	178478
#	190154
#	202880
#	217140
#	227986
#	243822
#	260034
#	273801
#	288951
#	306139
#
# Disc length: 4239 seconds
#
# Revision: 0
# Processed by: cddbd v1.5.2PL0 Copyright (c) Steve Scherf et al.
# Submitted via: CDex 1.51
#
DISCID=48108d17
DTITLE=Anita O'Day - Anita O'Day Eight Classic Albums CD2
DYEAR=1957
DGENRE=Jazz
TTITLE0=S'Wonderful - They Can't Take That Away From Me (Anita Sings The Most - 1957)
TTITLE1=Tenderly
TTITLE2=Old Devil Moon
TTITLE3=Love Me Or leave Me
TTITLE4=We'll Be Together Again
TTITLE5=Stella By Starlight
TTITLE6=Taking A Chance On Love
TTITLE7=Them There Eyes
TTITLE8=I've Got The Word On A String
TTITLE9=You Turned The Tables On Me
TTITLE10=Bewitched, Bothered And Bewildered
TTITLE11=Take The A Train (Anita Sings The Winners - 1958)
TTITLE12=Tenderly
TTITLE13=A Night In Tunisia
TTITLE14=Four
TTITLE15=Early Autumn
TTITLE16=Four Brothers
TTITLE17=Sing, Sing, Sing (With A Swing)
TTITLE18=My Funny Valentine
TTITLE19=Frenesi
TTITLE20=Body And Soul
TTITLE21=What's Your Story Morning Glory
TTITLE22=Peanut Vendor
EXTD=YEAR: 1957
EXTT0=
EXTT1=
EXTT2=
EXTT3=
EXTT4=
EXTT5=
EXTT6=
EXTT7=
EXTT8=
EXTT9=
EXTT10=
EXTT11=
EXTT12=
EXTT13=
EXTT14=
EXTT15=
EXTT16=
EXTT17=
EXTT18=
EXTT19=
EXTT20=
EXTT21=
EXTT22=
PLAYORDER=
